# xmcd CD database file
#
# Track frame offsets:
#	150
#	36179
#	71092
#	114217
#	143661
#	162668
#	179051
#	212920
#
# Disc length: 3196 seconds
#
# Revision: 2
# Processed by: cddbd v1.5.2PL0 Copyright (c) Steve Scherf et al.
# Submitted via: CDex 1.70beta2
#
DISCID=780c7a08
DTITLE=Pandelis Karayorgis Quintet - System Of 5
DYEAR=2011
DGENRE=Jazz
TTITLE0=Transit
TTITLE1=Two-ophony
TTITLE2=Elastic
TTITLE3=Seventh Wonder
TTITLE4=Curt's Escape
TTITLE5=Stray Line
TTITLE6=Due East
TTITLE7=Tones Not Notes
EXTD=YEAR: 2011
EXTT0=
EXTT1=
EXTT2=
EXTT3=
EXTT4=
EXTT5=
EXTT6=
EXTT7=
PLAYORDER=
